<svg xmlns="http://www.w3.org/2000/svg" xmlns:xlink="http://www.w3.org/1999/xlink" viewBox="0 0 560 420"><defs><style>.cls-1{isolation:isolate;}.cls-10,.cls-11,.cls-2{fill:#fff;}.cls-3,.cls-8{mix-blend-mode:multiply;}.cls-4{fill:#e2e2e2;}.cls-5{fill:url(#linear-gradient);}.cls-12,.cls-6{fill:#d1dafa;}.cls-10,.cls-11,.cls-12,.cls-14,.cls-15,.cls-16,.cls-17,.cls-18,.cls-21,.cls-22,.cls-6,.cls-7{stroke:#3a3836;stroke-width:2px;}.cls-10,.cls-14,.cls-16,.cls-17,.cls-21,.cls-22,.cls-6,.cls-7{stroke-miterlimit:10;}.cls-7{fill:#e6e6e6;}.cls-8{opacity:0.25;}.cls-9{fill:#784fa9;}.cls-11,.cls-12,.cls-15{stroke-linecap:round;stroke-linejoin:round;}.cls-13{fill:#3a3836;}.cls-14{fill:url(#linear-gradient-2);}.cls-15,.cls-22{fill:none;}.cls-16{fill:url(#linear-gradient-3);}.cls-17{fill:url(#linear-gradient-4);}.cls-18{fill:#fd8753;stroke-miterlimit:10;}.cls-19{fill:url(#linear-gradient-5);}.cls-20{fill:url(#linear-gradient-6);}.cls-21{fill:url(#linear-gradient-7);}.cls-23{fill:#ffcf3f;}</style><linearGradient id="linear-gradient" x1="342.47" y1="209.48" x2="371.71" y2="184.94" gradientUnits="userSpaceOnUse"><stop offset="0" stop-color="#ffde83"/><stop offset="0.33" stop-color="#ffde84" stop-opacity="0.99"/><stop offset="0.47" stop-color="#ffdf87" stop-opacity="0.96"/><stop offset="0.57" stop-color="#fee18e" stop-opacity="0.92"/><stop offset="0.65" stop-color="#fde396" stop-opacity="0.85"/><stop offset="0.73" stop-color="#fce6a1" stop-opacity="0.76"/><stop offset="0.79" stop-color="#fae9af" stop-opacity="0.65"/><stop offset="0.85" stop-color="#f9eec0" stop-opacity="0.52"/><stop offset="0.9" stop-color="#f7f3d3" stop-opacity="0.36"/><stop offset="0.95" stop-color="#f4f8e8" stop-opacity="0.2"/><stop offset="1" stop-color="#f2feff" stop-opacity="0.01"/></linearGradient><linearGradient id="linear-gradient-2" x1="199.49" y1="125.9" x2="224.45" y2="125.9" gradientUnits="userSpaceOnUse"><stop offset="0" stop-color="#ff8853"/><stop offset="0.25" stop-color="#ff8853"/><stop offset="1" stop-color="#ffc15a"/></linearGradient><linearGradient id="linear-gradient-3" x1="96.23" y1="255.48" x2="105.98" y2="255.48" gradientUnits="userSpaceOnUse"><stop offset="0" stop-color="#ff7002"/><stop offset="0.3" stop-color="#fe7304"/><stop offset="0.5" stop-color="#fc7c0a"/><stop offset="0.68" stop-color="#f88b15"/><stop offset="0.84" stop-color="#f3a125"/><stop offset="0.98" stop-color="#ecbd39"/><stop offset="1" stop-color="#ebc03b"/></linearGradient><linearGradient id="linear-gradient-4" x1="81.46" y1="255.48" x2="91.21" y2="255.48" xlink:href="#linear-gradient-3"/><linearGradient id="linear-gradient-5" x1="324.2" y1="243.77" x2="392.29" y2="243.77" gradientUnits="userSpaceOnUse"><stop offset="0" stop-color="#ff6d37"/><stop offset="0.31" stop-color="#fa9139"/><stop offset="0.64" stop-color="#f7ac3b"/><stop offset="0.87" stop-color="#fac53c"/></linearGradient><linearGradient id="linear-gradient-6" x1="403.67" y1="240.01" x2="471.75" y2="240.01" xlink:href="#linear-gradient-5"/><linearGradient id="linear-gradient-7" x1="288.05" y1="142.81" x2="356.52" y2="142.81" gradientTransform="translate(69.72 -142.88) rotate(26.05)" xlink:href="#linear-gradient-2"/></defs><g class="cls-1"><g id="Layer_1" data-name="Layer 1"><rect class="cls-2" x="177.73" y="207.64" width="37.41" height="61.32"/><g class="cls-3"><path class="cls-4" d="M106.54,376.24H226.59c7.5,0,13.58,5.59,13.58,12.47s-6.08,12.48-13.58,12.48h-120C99,401.19,93,395.6,93,388.71S99,376.24,106.54,376.24Z"/></g><path class="cls-5" d="M349.41,217.74l5-45.33a2.72,2.72,0,0,1,2.72-2.72h.51a2.72,2.72,0,0,1,2.72,2.72l6,45.33"/><rect class="cls-6" x="167.27" y="283.79" width="297.34" height="47.92" rx="23.96"/><rect class="cls-7" x="187.12" y="278.2" width="15.45" height="5.55" rx="2.04"/><rect class="cls-7" x="221.67" y="278.2" width="15.45" height="5.55" rx="2.04"/><rect class="cls-7" x="256.21" y="278.2" width="15.45" height="5.55" rx="2.04"/><rect class="cls-7" x="290.76" y="278.2" width="15.45" height="5.55" rx="2.04"/><rect class="cls-7" x="325.3" y="278.2" width="15.45" height="5.55" rx="2.04"/><rect class="cls-7" x="359.85" y="278.2" width="15.45" height="5.55" rx="2.04"/><rect class="cls-7" x="394.4" y="278.2" width="15.45" height="5.55" rx="2.04"/><rect class="cls-7" x="428.94" y="278.2" width="15.45" height="5.55" rx="2.04"/><rect class="cls-7" x="187.12" y="331.9" width="15.45" height="5.55" rx="2.04"/><rect class="cls-7" x="221.67" y="331.9" width="15.45" height="5.55" rx="2.04"/><rect class="cls-7" x="256.21" y="331.9" width="15.45" height="5.55" rx="2.04"/><rect class="cls-7" x="290.76" y="331.9" width="15.45" height="5.55" rx="2.04"/><rect class="cls-7" x="325.3" y="331.9" width="15.45" height="5.55" rx="2.04"/><rect class="cls-7" x="359.85" y="331.9" width="15.45" height="5.55" rx="2.04"/><rect class="cls-7" x="394.4" y="331.9" width="15.45" height="5.55" rx="2.04"/><rect class="cls-7" x="428.94" y="331.9" width="15.45" height="5.55" rx="2.04"/><g class="cls-8"><circle class="cls-9" cx="280.24" cy="309.82" r="13.21"/><circle class="cls-9" cx="437.87" cy="309.82" r="13.21"/><circle class="cls-9" cx="201.42" cy="309.82" r="13.21"/><circle class="cls-9" cx="359.05" cy="309.82" r="13.21"/></g><circle class="cls-10" cx="277.24" cy="307.82" r="13.21"/><circle class="cls-10" cx="434.87" cy="307.82" r="13.21"/><circle class="cls-10" cx="198.42" cy="307.82" r="13.21"/><circle class="cls-10" cx="356.05" cy="307.82" r="13.21"/><rect class="cls-11" x="235.93" y="111.07" width="106.63" height="30.72"/><rect class="cls-12" x="184.98" y="98.91" width="53.98" height="53.98" rx="7.51"/><circle class="cls-13" cx="214.97" cy="126.9" r="12.48"/><circle class="cls-14" cx="211.97" cy="125.9" r="12.48"/><rect class="cls-10" x="137.91" y="191.7" width="30.53" height="33.35"/><rect class="cls-10" x="75.11" y="285.03" width="30.53" height="33.35" rx="14.28"/><path class="cls-11" d="M89.61,301.52v78.67a20.12,20.12,0,0,0,20.28,20h0a20.12,20.12,0,0,0,20.28-20L135,325.55a4.13,4.13,0,0,1,4.15-3.87h0a4.11,4.11,0,0,1,4.15,3.91L151,378.31a21.42,21.42,0,0,0,21.33,21.25h0c12,.13,19.28-11.92,19.29-23.75L184,244.74c33.22-23.51,43.67-45.19,48.15-64.67s-16.43-24.8-16.43-24.8c1.12-26.82-10.07-20.76-10.07-20.76-10.08,70.73-38.77,63-38.77,63"/><path class="cls-11" d="M91.29,207,89,205.13A51.87,51.87,0,0,1,71,165.9c0-28.9,23.8-52.34,53.15-52.34S177.34,137,177.34,165.9A52.3,52.3,0,0,1,147,213.21l-1.2.6"/><path class="cls-11" d="M174.36,181.94c-17-2-29.21-16.14-29.21-33.42,0-10.13,2.69-17.76,9.87-24"/><rect class="cls-11" x="61.62" y="207.63" width="87.33" height="92.6" rx="17.36"/><path class="cls-11" d="M74.51,300.31s1,17.46,14.68,18.3"/><path class="cls-11" d="M183.92,248.46S174,272.37,149,266.81"/><path class="cls-11" d="M184.63,265.39s-10.12,18.81-35.15,13.25"/><path class="cls-15" d="M123.17,208.21v19A13.74,13.74,0,0,1,109.43,241H62"/><circle class="cls-16" cx="101.1" cy="255.48" r="4.88"/><circle class="cls-17" cx="86.34" cy="255.48" r="4.88"/><path class="cls-15" d="M61.71,250.8H72c2.11,0,3.82,2.26,3.82,5.06h0c0,2.8-1.71,5.06-3.82,5.06H61.71"/><path class="cls-15" d="M61.71,270.09h59.94c2.11,0,3.82,2.27,3.82,5.06h0c0,2.8-1.71,5.07-3.82,5.07H61.71"/><circle class="cls-11" cx="113.6" cy="175.22" r="7.95"/><line class="cls-11" x1="98.05" y1="112.17" x2="100.87" y2="118.5"/><ellipse class="cls-18" cx="95.1" cy="104.86" rx="7.39" ry="7.43" transform="translate(-32.55 43.68) rotate(-22.19)"/><polygon class="cls-19" points="378.73 218.49 335.82 218.05 324.2 240.01 341.23 269.49 375.27 269.49 392.29 240.01 378.73 218.49"/><polygon class="cls-11" points="294.47 210.53 260.43 210.53 243.41 240.01 260.43 269.49 294.47 269.49 311.5 240.01 294.47 210.53"/><polyline class="cls-11" points="185.95 269.49 213.89 269.49 230.91 240.01 216.72 215.43"/><polygon class="cls-15" points="374.21 210.53 340.17 210.53 323.14 240.01 340.17 269.49 374.21 269.49 391.23 240.01 374.21 210.53"/><polygon class="cls-20" points="454.73 210.53 420.69 210.53 403.67 240.01 420.69 269.49 454.73 269.49 471.75 240.01 454.73 210.53"/><polygon class="cls-15" points="453.67 210.53 419.63 210.53 402.61 240.01 419.63 269.49 453.67 269.49 470.69 240.01 453.67 210.53"/><path class="cls-21" d="M262.85,122.42h66.89a4.45,4.45,0,0,1,4.45,4.45v0a4.45,4.45,0,0,1-4.45,4.45H262.85a3.5,3.5,0,0,1-3.5-3.5v-1.91A3.5,3.5,0,0,1,262.85,122.42Z"/><path class="cls-10" d="M366.16,162.93h-18a2.11,2.11,0,0,1-2.11-2.11l1-2.87a2.11,2.11,0,0,1,2.11-2.11h16a2.11,2.11,0,0,1,2.11,2.11l1,2.87A2.11,2.11,0,0,1,366.16,162.93Z"/><polygon class="cls-22" points="359.22 173.17 355.49 173.17 353.49 162.98 361.22 162.98 359.22 173.17"/><path class="cls-6" d="M357.27,101.07h0a15.34,15.34,0,0,1,15.34,15.34v35.45a4,4,0,0,1-4,4H345.9a4,4,0,0,1-4-4V116.41a15.34,15.34,0,0,1,15.34-15.34Z"/><path class="cls-11" d="M357.09,109.84a7.43,7.43,0,1,0,7.42,7.43A7.42,7.42,0,0,0,357.09,109.84Zm0,10.42a3,3,0,1,1,3-3A3,3,0,0,1,357.09,120.26Z"/><line class="cls-15" x1="464.95" y1="307.29" x2="548.51" y2="307.29"/><line class="cls-15" x1="464.95" y1="307.29" x2="548.51" y2="307.29"/><line class="cls-15" x1="4.95" y1="307.29" x2="75.51" y2="307.29"/><line class="cls-15" x1="2.95" y1="307.29" x2="74.51" y2="307.29"/><path class="cls-23" d="M294.61,55s13-.65,15.68-15.41c0,0,.9,13.24,15.69,15.41,0,0-13.75.9-15.69,15.4C310.29,70.4,310.29,57.83,294.61,55Z"/><path class="cls-23" d="M415.16,137.26s13-.65,15.69-15.41c0,0,.89,13.24,15.69,15.41,0,0-13.75.9-15.69,15.4C430.85,152.66,430.85,140.09,415.16,137.26Z"/></g></g></svg>